# This file uses centimeters as units for non-parametric coordinates.

mtllib Cartucho.mtl
g default
v -0.105909 0.011670 0.077754
v 0.104449 0.011670 0.077754
v -0.105909 0.011670 -0.059671
v 0.104449 0.011670 -0.059671
v -0.105909 -0.012967 -0.059671
v 0.104449 -0.012967 -0.059671
v -0.105909 -0.012967 0.077754
v 0.104449 -0.012967 0.077754
vt 0.000000 -0.000000
vt 1.000000 -0.000000
vt 1.000000 1.000000
vt 0.000000 1.000000
vt 0.769083 0.777333
vt 0.952417 0.777333
vt 0.952417 0.960667
vt 0.769083 0.960667
vt 0.721646 1.000000
vt 0.999854 1.000000
vt 0.999854 -0.000000
vt 0.721646 -0.000000
vt 0.375000 0.265750
vt 0.625000 0.265750
vt 0.625000 0.515750
vt 0.375000 0.515750
vt 0.720750 -0.000000
vt 1.000750 -0.000000
vt 1.000750 1.000000
vt 0.720750 1.000000
vt 0.994172 -0.000000
vt 0.727328 -0.000000
vt 0.727328 1.000000
vt 0.994172 1.000000
vn 0.000000 1.000000 0.000000
vn 0.000000 1.000000 0.000000
vn 0.000000 1.000000 0.000000
vn 0.000000 1.000000 0.000000
vn 0.000000 0.000000 -1.000000
vn 0.000000 0.000000 -1.000000
vn 0.000000 0.000000 -1.000000
vn 0.000000 0.000000 -1.000000
vn 0.000000 -1.000000 0.000000
vn 0.000000 -1.000000 0.000000
vn 0.000000 -1.000000 0.000000
vn 0.000000 -1.000000 0.000000
vn 0.000000 0.000000 1.000000
vn 0.000000 0.000000 1.000000
vn 0.000000 0.000000 1.000000
vn 0.000000 0.000000 1.000000
vn 1.000000 0.000000 0.000000
vn 1.000000 0.000000 0.000000
vn 1.000000 0.000000 0.000000
vn 1.000000 0.000000 0.000000
vn -1.000000 0.000000 0.000000
vn -1.000000 0.000000 0.000000
vn -1.000000 0.000000 0.000000
vn -1.000000 0.000000 0.000000
s off
g pCube8
usemtl lambert12SG
f 1/1/1 2/2/2 4/3/3 3/4/4
f 3/5/5 4/6/6 6/7/7 5/8/8
f 5/9/9 6/10/10 8/11/11 7/12/12
f 7/13/13 8/14/14 2/15/15 1/16/16
f 2/17/17 8/18/18 6/19/19 4/20/20
f 7/21/21 1/22/22 3/23/23 5/24/24
