# This file uses centimeters as units for non-parametric coordinates.

mtllib Mesa.mtl
g default
v -1.375000 0.411278 0.660000
v 1.375000 0.411278 0.660000
v -1.375000 0.471278 0.660000
v 1.375000 0.471278 0.660000
v -1.375000 0.471278 -0.660000
v 1.375000 0.471278 -0.660000
v -1.375000 0.411278 -0.660000
v 1.375000 0.411278 -0.660000
vt 0.375000 0.000000
vt 0.625000 0.000000
vt 0.625000 0.250000
vt 0.375000 0.250000
vt 0.625000 0.500000
vt 0.375000 0.500000
vt 0.625000 0.750000
vt 0.375000 0.750000
vt 0.625000 1.000000
vt 0.375000 1.000000
vt 0.875000 0.000000
vt 0.875000 0.250000
vt 0.125000 0.000000
vt 0.125000 0.250000
vn 0.000000 0.000000 1.000000
vn 0.000000 0.000000 1.000000
vn 0.000000 0.000000 1.000000
vn 0.000000 0.000000 1.000000
vn 0.000000 1.000000 0.000000
vn 0.000000 1.000000 0.000000
vn 0.000000 1.000000 0.000000
vn 0.000000 1.000000 0.000000
vn 0.000000 0.000000 -1.000000
vn 0.000000 0.000000 -1.000000
vn 0.000000 0.000000 -1.000000
vn 0.000000 0.000000 -1.000000
vn 0.000000 -1.000000 0.000000
vn 0.000000 -1.000000 0.000000
vn 0.000000 -1.000000 0.000000
vn 0.000000 -1.000000 0.000000
vn 1.000000 0.000000 0.000000
vn 1.000000 0.000000 0.000000
vn 1.000000 0.000000 0.000000
vn 1.000000 0.000000 0.000000
vn -1.000000 0.000000 0.000000
vn -1.000000 0.000000 0.000000
vn -1.000000 0.000000 0.000000
vn -1.000000 0.000000 0.000000
s off
g Mesa_pCube2
usemtl phong9SG
f 1/1/1 2/2/2 4/3/3 3/4/4
f 3/4/5 4/3/6 6/5/7 5/6/8
f 5/6/9 6/5/10 8/7/11 7/8/12
f 7/8/13 8/7/14 2/9/15 1/10/16
f 2/2/17 8/11/18 6/12/19 4/3/20
f 7/13/21 1/1/22 3/4/23 5/14/24
g default
v 1.209802 0.002327 -0.585374
v 1.290218 0.002327 -0.585391
v 1.290197 0.002327 -0.514626
v 1.209783 0.002327 -0.514609
v 1.183500 0.467580 -0.608520
v 1.316535 0.467580 -0.608551
v 1.316500 0.467580 -0.491480
v 1.183465 0.467580 -0.491449
vt 0.500000 0.889212
vt 0.514219 0.875000
vt 0.500000 0.860788
vt 0.485781 0.875000
vt 0.500000 0.500000
vt 0.625000 0.500000
vt 0.575559 0.697766
vt 0.500000 0.697766
vt 0.750000 0.500000
vt 0.651117 0.697766
vt 0.375000 0.500000
vt 0.424441 0.697766
vt 0.250000 0.500000
vt 0.348883 0.697766
vt 0.500000 0.000000
vt 0.750000 0.250000
vt 0.250000 0.250000
vn 0.000000 -1.000000 -0.000000
vn 0.000000 -1.000000 -0.000000
vn 0.000000 -1.000000 -0.000000
vn 0.000000 -1.000000 -0.000000
vn -0.000229 -0.049701 -0.998764
vn -0.000229 -0.049701 -0.998764
vn -0.000230 -0.049701 -0.998764
vn -0.000229 -0.049701 -0.998764
vn 0.998405 -0.056459 0.000295
vn 0.998405 -0.056459 0.000295
vn 0.998405 -0.056459 0.000295
vn 0.998405 -0.056459 0.000295
vn -0.998405 -0.056459 -0.000295
vn -0.998405 -0.056459 -0.000295
vn -0.998405 -0.056459 -0.000295
vn -0.998405 -0.056459 -0.000295
vn 0.000229 -0.049701 0.998764
vn 0.000229 -0.049701 0.998764
vn 0.000229 -0.049701 0.998764
vn 0.000229 -0.049701 0.998764
vn -0.000000 1.000000 -0.000000
vn -0.000000 1.000000 -0.000000
vn -0.000000 1.000000 -0.000000
vn -0.000000 1.000000 -0.000000
s off
g pPyramid2polySurface4
usemtl phong9SG
f 9/15/25 10/16/26 11/17/27 12/18/28
f 13/19/29 14/20/30 10/21/31 9/22/32
f 14/20/33 15/23/34 11/24/35 10/21/36
f 16/25/37 13/19/38 9/22/39 12/26/40
f 15/27/41 16/25/42 12/26/43 11/28/44
f 15/29/45 14/30/46 13/19/47 16/31/48
g default
v -1.437500 0.471299 0.715000
v 1.437500 0.471299 0.715000
v -1.437500 0.591299 0.715000
v 1.437500 0.591299 0.715000
v -1.437500 0.591299 -0.715000
v 1.437500 0.591299 -0.715000
v -1.437500 0.471299 -0.715000
v 1.437500 0.471299 -0.715000
vt 0.375000 0.000000
vt 0.625000 0.000000
vt 0.625000 0.250000
vt 0.375000 0.250000
vt 0.625000 0.500000
vt 0.375000 0.500000
vt 0.625000 0.750000
vt 0.375000 0.750000
vt 0.625000 1.000000
vt 0.375000 1.000000
vt 0.875000 0.000000
vt 0.875000 0.250000
vt 0.125000 0.000000
vt 0.125000 0.250000
vn 0.000000 0.000000 1.000000
vn 0.000000 0.000000 1.000000
vn 0.000000 0.000000 1.000000
vn 0.000000 0.000000 1.000000
vn 0.000000 1.000000 0.000000
vn 0.000000 1.000000 0.000000
vn 0.000000 1.000000 0.000000
vn 0.000000 1.000000 0.000000
vn 0.000000 0.000000 -1.000000
vn 0.000000 0.000000 -1.000000
vn 0.000000 0.000000 -1.000000
vn 0.000000 0.000000 -1.000000
vn 0.000000 -1.000000 0.000000
vn 0.000000 -1.000000 0.000000
vn 0.000000 -1.000000 0.000000
vn 0.000000 -1.000000 0.000000
vn 1.000000 0.000000 0.000000
vn 1.000000 0.000000 0.000000
vn 1.000000 0.000000 0.000000
vn 1.000000 0.000000 0.000000
vn -1.000000 0.000000 0.000000
vn -1.000000 0.000000 0.000000
vn -1.000000 0.000000 0.000000
vn -1.000000 0.000000 0.000000
s off
g Mesa_pCube3
usemtl phong9SG
f 17/32/49 18/33/50 20/34/51 19/35/52
f 19/35/53 20/34/54 22/36/55 21/37/56
f 21/37/57 22/36/58 24/38/59 23/39/60
f 23/39/61 24/38/62 18/40/63 17/41/64
f 18/33/65 24/42/66 22/43/67 20/34/68
f 23/44/69 17/32/70 19/35/71 21/45/72
g default
v -1.290197 0.002327 -0.585374
v -1.209783 0.002327 -0.585391
v -1.209803 0.002327 -0.514626
v -1.290217 0.002327 -0.514609
v -1.316500 0.467580 -0.608520
v -1.183465 0.467580 -0.608551
v -1.183500 0.467580 -0.491480
v -1.316535 0.467580 -0.491449
vt 0.500000 0.889212
vt 0.514219 0.875000
vt 0.500000 0.860788
vt 0.485781 0.875000
vt 0.500000 0.500000
vt 0.625000 0.500000
vt 0.575559 0.697766
vt 0.500000 0.697766
vt 0.750000 0.500000
vt 0.651117 0.697766
vt 0.375000 0.500000
vt 0.424441 0.697766
vt 0.250000 0.500000
vt 0.348883 0.697766
vt 0.500000 0.000000
vt 0.750000 0.250000
vt 0.250000 0.250000
vn 0.000000 -1.000000 0.000000
vn 0.000000 -1.000000 0.000000
vn 0.000000 -1.000000 0.000000
vn 0.000000 -1.000000 0.000000
vn -0.000229 -0.049701 -0.998764
vn -0.000229 -0.049701 -0.998764
vn -0.000230 -0.049701 -0.998764
vn -0.000229 -0.049701 -0.998764
vn 0.998405 -0.056459 0.000295
vn 0.998405 -0.056459 0.000295
vn 0.998405 -0.056459 0.000295
vn 0.998405 -0.056459 0.000295
vn -0.998405 -0.056459 -0.000295
vn -0.998405 -0.056459 -0.000295
vn -0.998405 -0.056459 -0.000295
vn -0.998405 -0.056459 -0.000295
vn 0.000229 -0.049701 0.998764
vn 0.000229 -0.049701 0.998764
vn 0.000229 -0.049701 0.998764
vn 0.000229 -0.049701 0.998764
vn -0.000000 1.000000 -0.000000
vn -0.000000 1.000000 -0.000000
vn -0.000000 1.000000 -0.000000
vn -0.000000 1.000000 -0.000000
s off
g pPyramid2polySurface5
usemtl phong9SG
f 25/46/73 26/47/74 27/48/75 28/49/76
f 29/50/77 30/51/78 26/52/79 25/53/80
f 30/51/81 31/54/82 27/55/83 26/52/84
f 32/56/85 29/50/86 25/53/87 28/57/88
f 31/58/89 32/56/90 28/57/91 27/59/92
f 31/60/93 30/61/94 29/50/95 32/62/96
g default
v 1.209802 0.002327 0.514626
v 1.290218 0.002327 0.514609
v 1.290197 0.002327 0.585374
v 1.209783 0.002327 0.585391
v 1.183500 0.467580 0.491480
v 1.316535 0.467580 0.491449
v 1.316500 0.467580 0.608520
v 1.183465 0.467580 0.608551
vt 0.500000 0.889212
vt 0.514219 0.875000
vt 0.500000 0.860788
vt 0.485781 0.875000
vt 0.500000 0.500000
vt 0.625000 0.500000
vt 0.575559 0.697766
vt 0.500000 0.697766
vt 0.750000 0.500000
vt 0.651117 0.697766
vt 0.375000 0.500000
vt 0.424441 0.697766
vt 0.250000 0.500000
vt 0.348883 0.697766
vt 0.500000 0.000000
vt 0.750000 0.250000
vt 0.250000 0.250000
vn 0.000000 -1.000000 0.000000
vn 0.000000 -1.000000 0.000000
vn 0.000000 -1.000000 0.000000
vn 0.000000 -1.000000 0.000000
vn -0.000229 -0.049701 -0.998764
vn -0.000229 -0.049701 -0.998764
vn -0.000230 -0.049701 -0.998764
vn -0.000229 -0.049701 -0.998764
vn 0.998405 -0.056459 0.000295
vn 0.998405 -0.056459 0.000295
vn 0.998405 -0.056459 0.000295
vn 0.998405 -0.056459 0.000295
vn -0.998405 -0.056459 -0.000295
vn -0.998405 -0.056459 -0.000295
vn -0.998405 -0.056459 -0.000295
vn -0.998405 -0.056459 -0.000295
vn 0.000229 -0.049701 0.998764
vn 0.000229 -0.049701 0.998764
vn 0.000229 -0.049701 0.998764
vn 0.000229 -0.049701 0.998764
vn -0.000000 1.000000 -0.000000
vn -0.000000 1.000000 -0.000000
vn -0.000000 1.000000 -0.000000
vn -0.000000 1.000000 -0.000000
s off
g polySurface3pPyramid2
usemtl phong9SG
f 33/63/97 34/64/98 35/65/99 36/66/100
f 37/67/101 38/68/102 34/69/103 33/70/104
f 38/68/105 39/71/106 35/72/107 34/69/108
f 40/73/109 37/67/110 33/70/111 36/74/112
f 39/75/113 40/73/114 36/74/115 35/76/116
f 39/77/117 38/78/118 37/67/119 40/79/120
g default
v -1.290197 0.002327 0.514626
v -1.209783 0.002327 0.514609
v -1.209803 0.002327 0.585374
v -1.290217 0.002327 0.585391
v -1.316500 0.467580 0.491480
v -1.183465 0.467580 0.491449
v -1.183500 0.467580 0.608520
v -1.316535 0.467580 0.608551
vt 0.500000 0.889212
vt 0.514219 0.875000
vt 0.500000 0.860788
vt 0.485781 0.875000
vt 0.500000 0.500000
vt 0.625000 0.500000
vt 0.575559 0.697766
vt 0.500000 0.697766
vt 0.750000 0.500000
vt 0.651117 0.697766
vt 0.375000 0.500000
vt 0.424441 0.697766
vt 0.250000 0.500000
vt 0.348883 0.697766
vt 0.500000 0.000000
vt 0.750000 0.250000
vt 0.250000 0.250000
vn 0.000000 -1.000000 0.000000
vn 0.000000 -1.000000 0.000000
vn 0.000000 -1.000000 0.000000
vn 0.000000 -1.000000 0.000000
vn -0.000229 -0.049701 -0.998764
vn -0.000229 -0.049701 -0.998764
vn -0.000230 -0.049701 -0.998764
vn -0.000229 -0.049701 -0.998764
vn 0.998405 -0.056459 0.000295
vn 0.998405 -0.056459 0.000295
vn 0.998405 -0.056459 0.000295
vn 0.998405 -0.056459 0.000295
vn -0.998405 -0.056459 -0.000295
vn -0.998405 -0.056459 -0.000295
vn -0.998405 -0.056459 -0.000295
vn -0.998405 -0.056459 -0.000295
vn 0.000229 -0.049701 0.998764
vn 0.000229 -0.049701 0.998764
vn 0.000229 -0.049701 0.998764
vn 0.000229 -0.049701 0.998764
vn -0.000000 1.000000 -0.000000
vn -0.000000 1.000000 -0.000000
vn -0.000000 1.000000 -0.000000
vn -0.000000 1.000000 -0.000000
s off
g pPyramid2polySurface2
usemtl phong9SG
f 41/80/121 42/81/122 43/82/123 44/83/124
f 45/84/125 46/85/126 42/86/127 41/87/128
f 46/85/129 47/88/130 43/89/131 42/86/132
f 48/90/133 45/84/134 41/87/135 44/91/136
f 47/92/137 48/90/138 44/91/139 43/93/140
f 47/94/141 46/95/142 45/84/143 48/96/144
