# This file uses centimeters as units for non-parametric coordinates.

mtllib Mesa.mtl
g default
v -1.419217 0.003258 -0.643911
v -1.330761 0.003258 -0.643930
v -1.330783 0.003258 -0.566089
v -1.419239 0.003258 -0.566070
v -1.448150 0.654612 -0.669372
v -1.301812 0.654612 -0.669406
v -1.301850 0.654612 -0.540628
v -1.448188 0.654612 -0.540594
vt 0.500000 0.889212
vt 0.514219 0.875000
vt 0.500000 0.860788
vt 0.485781 0.875000
vt 0.500000 0.500000
vt 0.625000 0.500000
vt 0.575559 0.697766
vt 0.500000 0.697766
vt 0.750000 0.500000
vt 0.651117 0.697766
vt 0.375000 0.500000
vt 0.424441 0.697766
vt 0.250000 0.500000
vt 0.348883 0.697766
vt 0.500000 0.000000
vt 0.750000 0.250000
vt 0.250000 0.250000
vn 0.000000 -1.000000 0.000000
vn 0.000000 -1.000000 0.000000
vn 0.000000 -1.000000 0.000000
vn 0.000000 -1.000000 0.000000
vn -0.000229 -0.039069 -0.999237
vn -0.000229 -0.039069 -0.999237
vn -0.000230 -0.039069 -0.999237
vn -0.000229 -0.039069 -0.999237
vn 0.999014 -0.044388 0.000295
vn 0.999014 -0.044388 0.000295
vn 0.999014 -0.044388 0.000295
vn 0.999014 -0.044388 0.000295
vn -0.999014 -0.044388 -0.000295
vn -0.999014 -0.044388 -0.000295
vn -0.999014 -0.044388 -0.000295
vn -0.999014 -0.044388 -0.000295
vn 0.000229 -0.039069 0.999237
vn 0.000229 -0.039069 0.999237
vn 0.000229 -0.039069 0.999237
vn 0.000229 -0.039069 0.999237
vn -0.000000 1.000000 -0.000000
vn -0.000000 1.000000 -0.000000
vn -0.000000 1.000000 -0.000000
vn -0.000000 1.000000 -0.000000
s off
g pPyramid2polySurface5
usemtl Mesa_phong9SG
f 1/1/1 2/2/2 3/3/3 4/4/4
f 5/5/5 6/6/6 2/7/7 1/8/8
f 6/6/9 7/9/10 3/10/11 2/7/12
f 8/11/13 5/5/14 1/8/15 4/12/16
f 7/13/17 8/11/18 4/12/19 3/14/20
f 7/15/21 6/16/22 5/5/23 8/17/24
g default
v 1.330782 0.003258 -0.643911
v 1.419240 0.003258 -0.643930
v 1.419217 0.003258 -0.566089
v 1.330761 0.003258 -0.566070
v 1.301850 0.654612 -0.669372
v 1.448188 0.654612 -0.669406
v 1.448150 0.654612 -0.540628
v 1.301812 0.654612 -0.540594
vt 0.500000 0.889212
vt 0.514219 0.875000
vt 0.500000 0.860788
vt 0.485781 0.875000
vt 0.500000 0.500000
vt 0.625000 0.500000
vt 0.575559 0.697766
vt 0.500000 0.697766
vt 0.750000 0.500000
vt 0.651117 0.697766
vt 0.375000 0.500000
vt 0.424441 0.697766
vt 0.250000 0.500000
vt 0.348883 0.697766
vt 0.500000 0.000000
vt 0.750000 0.250000
vt 0.250000 0.250000
vn 0.000000 -1.000000 0.000000
vn 0.000000 -1.000000 0.000000
vn 0.000000 -1.000000 0.000000
vn 0.000000 -1.000000 0.000000
vn -0.000229 -0.039069 -0.999237
vn -0.000229 -0.039069 -0.999237
vn -0.000230 -0.039069 -0.999237
vn -0.000229 -0.039069 -0.999237
vn 0.999014 -0.044388 0.000295
vn 0.999014 -0.044388 0.000295
vn 0.999014 -0.044388 0.000295
vn 0.999014 -0.044388 0.000295
vn -0.999014 -0.044388 -0.000295
vn -0.999014 -0.044388 -0.000295
vn -0.999014 -0.044388 -0.000295
vn -0.999014 -0.044388 -0.000295
vn 0.000229 -0.039069 0.999237
vn 0.000229 -0.039069 0.999237
vn 0.000229 -0.039069 0.999237
vn 0.000229 -0.039069 0.999237
vn -0.000000 1.000000 -0.000000
vn -0.000000 1.000000 -0.000000
vn -0.000000 1.000000 -0.000000
vn -0.000000 1.000000 -0.000000
s off
g pPyramid2polySurface4
usemtl Mesa_phong9SG
f 9/18/25 10/19/26 11/20/27 12/21/28
f 13/22/29 14/23/30 10/24/31 9/25/32
f 14/23/33 15/26/34 11/27/35 10/24/36
f 16/28/37 13/22/38 9/25/39 12/29/40
f 15/30/41 16/28/42 12/29/43 11/31/44
f 15/32/45 14/33/46 13/22/47 16/34/48
g default
v 1.330782 0.003258 0.566089
v 1.419240 0.003258 0.566070
v 1.419217 0.003258 0.643911
v 1.330761 0.003258 0.643930
v 1.301850 0.654612 0.540628
v 1.448188 0.654612 0.540594
v 1.448150 0.654612 0.669372
v 1.301812 0.654612 0.669406
vt 0.500000 0.889212
vt 0.514219 0.875000
vt 0.500000 0.860788
vt 0.485781 0.875000
vt 0.500000 0.500000
vt 0.625000 0.500000
vt 0.575559 0.697766
vt 0.500000 0.697766
vt 0.750000 0.500000
vt 0.651117 0.697766
vt 0.375000 0.500000
vt 0.424441 0.697766
vt 0.250000 0.500000
vt 0.348883 0.697766
vt 0.500000 0.000000
vt 0.750000 0.250000
vt 0.250000 0.250000
vn 0.000000 -1.000000 -0.000000
vn 0.000000 -1.000000 -0.000000
vn 0.000000 -1.000000 -0.000000
vn 0.000000 -1.000000 -0.000000
vn -0.000229 -0.039069 -0.999237
vn -0.000229 -0.039069 -0.999237
vn -0.000230 -0.039069 -0.999237
vn -0.000229 -0.039069 -0.999237
vn 0.999014 -0.044388 0.000295
vn 0.999014 -0.044388 0.000295
vn 0.999014 -0.044388 0.000295
vn 0.999014 -0.044388 0.000295
vn -0.999014 -0.044388 -0.000295
vn -0.999014 -0.044388 -0.000295
vn -0.999014 -0.044388 -0.000295
vn -0.999014 -0.044388 -0.000295
vn 0.000229 -0.039069 0.999237
vn 0.000229 -0.039069 0.999237
vn 0.000229 -0.039069 0.999237
vn 0.000229 -0.039069 0.999237
vn -0.000000 1.000000 -0.000000
vn -0.000000 1.000000 -0.000000
vn -0.000000 1.000000 -0.000000
vn -0.000000 1.000000 -0.000000
s off
g polySurface3pPyramid2
usemtl Mesa_phong9SG
f 17/35/49 18/36/50 19/37/51 20/38/52
f 21/39/53 22/40/54 18/41/55 17/42/56
f 22/40/57 23/43/58 19/44/59 18/41/60
f 24/45/61 21/39/62 17/42/63 20/46/64
f 23/47/65 24/45/66 20/46/67 19/48/68
f 23/49/69 22/50/70 21/39/71 24/51/72
g default
v -1.419217 0.003258 0.566089
v -1.330761 0.003258 0.566070
v -1.330783 0.003258 0.643911
v -1.419239 0.003258 0.643930
v -1.448150 0.654612 0.540628
v -1.301812 0.654612 0.540594
v -1.301850 0.654612 0.669372
v -1.448188 0.654612 0.669406
vt 0.500000 0.889212
vt 0.514219 0.875000
vt 0.500000 0.860788
vt 0.485781 0.875000
vt 0.500000 0.500000
vt 0.625000 0.500000
vt 0.575559 0.697766
vt 0.500000 0.697766
vt 0.750000 0.500000
vt 0.651117 0.697766
vt 0.375000 0.500000
vt 0.424441 0.697766
vt 0.250000 0.500000
vt 0.348883 0.697766
vt 0.500000 0.000000
vt 0.750000 0.250000
vt 0.250000 0.250000
vn 0.000000 -1.000000 0.000000
vn 0.000000 -1.000000 0.000000
vn 0.000000 -1.000000 0.000000
vn 0.000000 -1.000000 0.000000
vn -0.000229 -0.039069 -0.999237
vn -0.000229 -0.039069 -0.999237
vn -0.000230 -0.039069 -0.999237
vn -0.000229 -0.039069 -0.999237
vn 0.999014 -0.044388 0.000295
vn 0.999014 -0.044388 0.000295
vn 0.999014 -0.044388 0.000295
vn 0.999014 -0.044388 0.000295
vn -0.999014 -0.044388 -0.000295
vn -0.999014 -0.044388 -0.000295
vn -0.999014 -0.044388 -0.000295
vn -0.999014 -0.044388 -0.000295
vn 0.000229 -0.039069 0.999237
vn 0.000229 -0.039069 0.999237
vn 0.000229 -0.039069 0.999237
vn 0.000229 -0.039069 0.999237
vn -0.000000 1.000000 -0.000000
vn -0.000000 1.000000 -0.000000
vn -0.000000 1.000000 -0.000000
vn -0.000000 1.000000 -0.000000
s off
g pPyramid2polySurface2
usemtl Mesa_phong9SG
f 25/52/73 26/53/74 27/54/75 28/55/76
f 29/56/77 30/57/78 26/58/79 25/59/80
f 30/57/81 31/60/82 27/61/83 26/58/84
f 32/62/85 29/56/86 25/59/87 28/63/88
f 31/64/89 32/62/90 28/63/91 27/65/92
f 31/66/93 30/67/94 29/56/95 32/68/96
g default
v -1.512500 0.575789 0.726000
v 1.512500 0.575789 0.726000
v -1.512500 0.659789 0.726000
v 1.512500 0.659789 0.726000
v -1.512500 0.659789 -0.726000
v 1.512500 0.659789 -0.726000
v -1.512500 0.575789 -0.726000
v 1.512500 0.575789 -0.726000
vt 0.375000 0.000000
vt 0.625000 0.000000
vt 0.625000 0.250000
vt 0.375000 0.250000
vt 0.625000 0.500000
vt 0.375000 0.500000
vt 0.625000 0.750000
vt 0.375000 0.750000
vt 0.625000 1.000000
vt 0.375000 1.000000
vt 0.875000 0.000000
vt 0.875000 0.250000
vt 0.125000 0.000000
vt 0.125000 0.250000
vn 0.000000 0.000000 1.000000
vn 0.000000 0.000000 1.000000
vn 0.000000 0.000000 1.000000
vn 0.000000 0.000000 1.000000
vn 0.000000 1.000000 0.000000
vn 0.000000 1.000000 0.000000
vn 0.000000 1.000000 0.000000
vn 0.000000 1.000000 0.000000
vn 0.000000 0.000000 -1.000000
vn 0.000000 0.000000 -1.000000
vn 0.000000 0.000000 -1.000000
vn 0.000000 0.000000 -1.000000
vn 0.000000 -1.000000 0.000000
vn 0.000000 -1.000000 0.000000
vn 0.000000 -1.000000 0.000000
vn 0.000000 -1.000000 0.000000
vn 1.000000 0.000000 0.000000
vn 1.000000 0.000000 0.000000
vn 1.000000 0.000000 0.000000
vn 1.000000 0.000000 0.000000
vn -1.000000 0.000000 0.000000
vn -1.000000 0.000000 0.000000
vn -1.000000 0.000000 0.000000
vn -1.000000 0.000000 0.000000
s off
g Mesa_pCube2
usemtl Mesa_phong9SG
f 33/69/97 34/70/98 36/71/99 35/72/100
f 35/72/101 36/71/102 38/73/103 37/74/104
f 37/74/105 38/73/106 40/75/107 39/76/108
f 39/76/109 40/75/110 34/77/111 33/78/112
f 34/70/113 40/79/114 38/80/115 36/71/116
f 39/81/117 33/69/118 35/72/119 37/82/120
g default
v -1.581250 0.659819 0.786500
v 1.581250 0.659819 0.786500
v -1.581250 0.827819 0.786500
v 1.581250 0.827819 0.786500
v -1.581250 0.827819 -0.786500
v 1.581250 0.827819 -0.786500
v -1.581250 0.659819 -0.786500
v 1.581250 0.659819 -0.786500
vt 0.375000 0.000000
vt 0.625000 0.000000
vt 0.625000 0.250000
vt 0.375000 0.250000
vt 0.625000 0.500000
vt 0.375000 0.500000
vt 0.625000 0.750000
vt 0.375000 0.750000
vt 0.625000 1.000000
vt 0.375000 1.000000
vt 0.875000 0.000000
vt 0.875000 0.250000
vt 0.125000 0.000000
vt 0.125000 0.250000
vn 0.000000 0.000000 1.000000
vn 0.000000 0.000000 1.000000
vn 0.000000 0.000000 1.000000
vn 0.000000 0.000000 1.000000
vn 0.000000 1.000000 0.000000
vn 0.000000 1.000000 0.000000
vn 0.000000 1.000000 0.000000
vn 0.000000 1.000000 0.000000
vn 0.000000 0.000000 -1.000000
vn 0.000000 0.000000 -1.000000
vn 0.000000 0.000000 -1.000000
vn 0.000000 0.000000 -1.000000
vn 0.000000 -1.000000 0.000000
vn 0.000000 -1.000000 0.000000
vn 0.000000 -1.000000 0.000000
vn 0.000000 -1.000000 0.000000
vn 1.000000 0.000000 0.000000
vn 1.000000 0.000000 0.000000
vn 1.000000 0.000000 0.000000
vn 1.000000 0.000000 0.000000
vn -1.000000 0.000000 0.000000
vn -1.000000 0.000000 0.000000
vn -1.000000 0.000000 0.000000
vn -1.000000 0.000000 0.000000
s off
g Mesa_pCube3
usemtl Mesa_phong9SG
f 41/83/121 42/84/122 44/85/123 43/86/124
f 43/86/125 44/85/126 46/87/127 45/88/128
f 45/88/129 46/87/130 48/89/131 47/90/132
f 47/90/133 48/89/134 42/91/135 41/92/136
f 42/84/137 48/93/138 46/94/139 44/85/140
f 47/95/141 41/83/142 43/86/143 45/96/144
g default
v -1.375000 0.400977 0.594000
v 1.375000 0.400977 0.594000
v -1.375000 0.436977 0.594000
v 1.375000 0.436977 0.594000
v -1.375000 0.436977 -0.594000
v 1.375000 0.436977 -0.594000
v -1.375000 0.400977 -0.594000
v 1.375000 0.400977 -0.594000
vt 0.375000 0.000000
vt 0.625000 0.000000
vt 0.625000 0.250000
vt 0.375000 0.250000
vt 0.625000 0.500000
vt 0.375000 0.500000
vt 0.625000 0.750000
vt 0.375000 0.750000
vt 0.625000 1.000000
vt 0.375000 1.000000
vt 0.875000 0.000000
vt 0.875000 0.250000
vt 0.125000 0.000000
vt 0.125000 0.250000
vn 0.000000 0.000000 1.000000
vn 0.000000 0.000000 1.000000
vn 0.000000 0.000000 1.000000
vn 0.000000 0.000000 1.000000
vn 0.000000 1.000000 0.000000
vn 0.000000 1.000000 0.000000
vn 0.000000 1.000000 0.000000
vn 0.000000 1.000000 0.000000
vn 0.000000 0.000000 -1.000000
vn 0.000000 0.000000 -1.000000
vn 0.000000 0.000000 -1.000000
vn 0.000000 0.000000 -1.000000
vn 0.000000 -1.000000 0.000000
vn 0.000000 -1.000000 0.000000
vn 0.000000 -1.000000 0.000000
vn 0.000000 -1.000000 0.000000
vn 1.000000 0.000000 0.000000
vn 1.000000 0.000000 0.000000
vn 1.000000 0.000000 0.000000
vn 1.000000 0.000000 0.000000
vn -1.000000 0.000000 0.000000
vn -1.000000 0.000000 0.000000
vn -1.000000 0.000000 0.000000
vn -1.000000 0.000000 0.000000
s off
g Mesa_pCube4
usemtl Mesa_phong9SG
f 49/97/145 50/98/146 52/99/147 51/100/148
f 51/100/149 52/99/150 54/101/151 53/102/152
f 53/102/153 54/101/154 56/103/155 55/104/156
f 55/104/157 56/103/158 50/105/159 49/106/160
f 50/98/161 56/107/162 54/108/163 52/99/164
f 55/109/165 49/97/166 51/100/167 53/110/168
